<?xml version="1.0" encoding="utf-8"?>
<!-- Generator: Adobe Illustrator 27.5.0, SVG Export Plug-In . SVG Version: 6.00 Build 0)  -->
<svg version="1.1" xmlns="http://www.w3.org/2000/svg" xmlns:xlink="http://www.w3.org/1999/xlink" x="0px" y="0px"
	 viewBox="0 0 500 500" style="enable-background:new 0 0 500 500;" xml:space="preserve">
<g id="Background_Complete">
	<g>
		<rect y="382.398" style="fill:#EBEBEB;" width="500" height="0.25"/>
		<rect x="52.459" y="398.494" style="fill:#EBEBEB;" width="33.122" height="0.25"/>
		<rect x="171.14" y="401.208" style="fill:#EBEBEB;" width="8.693" height="0.25"/>
		<rect x="86.582" y="389.208" style="fill:#EBEBEB;" width="25.418" height="0.25"/>
		<rect x="422" y="390.888" style="fill:#EBEBEB;" width="27.901" height="0.25"/>
		<rect x="391.471" y="390.888" style="fill:#EBEBEB;" width="21.625" height="0.25"/>
		<rect x="277.213" y="395.111" style="fill:#EBEBEB;" width="51.454" height="0.25"/>
		<path style="fill:#EBEBEB;" d="M237.014,337.8H43.915c-3.147,0-5.708-2.561-5.708-5.708V60.66c0-3.147,2.561-5.708,5.708-5.708
			h193.099c3.146,0,5.707,2.561,5.707,5.708v271.432C242.721,335.239,240.16,337.8,237.014,337.8z M43.915,55.203
			c-3.01,0-5.458,2.448-5.458,5.458v271.432c0,3.01,2.448,5.458,5.458,5.458h193.099c3.009,0,5.457-2.448,5.457-5.458V60.66
			c0-3.009-2.448-5.458-5.457-5.458H43.915z"/>
		<path style="fill:#EBEBEB;" d="M453.31,337.8H260.212c-3.147,0-5.707-2.561-5.707-5.708V60.66c0-3.147,2.561-5.708,5.707-5.708
			H453.31c3.148,0,5.708,2.561,5.708,5.708v271.432C459.019,335.239,456.458,337.8,453.31,337.8z M260.212,55.203
			c-3.009,0-5.457,2.448-5.457,5.458v271.432c0,3.01,2.448,5.458,5.457,5.458H453.31c3.01,0,5.458-2.448,5.458-5.458V60.66
			c0-3.009-2.448-5.458-5.458-5.458H260.212z"/>
	</g>
	<g>
		<g>
			<g>
				<polygon style="fill:#E0E0E0;" points="115.514,247 83.281,247 83.281,382.398 138.879,382.398 138.879,270.365 				"/>
				<rect x="59.916" y="270.365" style="fill:#EBEBEB;" width="46.729" height="112.034"/>
				<rect x="59.916" y="270.365" style="fill:#E0E0E0;" width="46.729" height="1.844"/>
				<polygon style="fill:#EBEBEB;" points="83.281,247 59.916,270.365 106.645,270.365 				"/>
				<rect x="67.731" y="285.003" style="fill:#E0E0E0;" width="8.488" height="8.488"/>
				<rect x="86.384" y="285.003" style="fill:#E0E0E0;" width="8.488" height="8.488"/>
				<rect x="67.731" y="309.333" style="fill:#E0E0E0;" width="8.488" height="8.488"/>
				<rect x="86.384" y="309.333" style="fill:#E0E0E0;" width="8.488" height="8.488"/>
				<rect x="67.731" y="333.662" style="fill:#E0E0E0;" width="8.488" height="8.488"/>
				<rect x="86.384" y="333.662" style="fill:#E0E0E0;" width="8.488" height="8.488"/>
				<rect x="67.731" y="357.992" style="fill:#E0E0E0;" width="8.488" height="8.488"/>
				<rect x="86.384" y="357.992" style="fill:#E0E0E0;" width="8.488" height="8.488"/>
				<rect x="122.349" y="248.812" style="fill:#E0E0E0;" width="7.629" height="15.259"/>
			</g>
			<g>
				<polygon style="fill:#E0E0E0;" points="296.689,229.173 256.837,229.173 256.837,382.398 325.575,382.398 325.575,258.06 				
					"/>
				<rect x="227.95" y="258.06" style="fill:#EBEBEB;" width="57.773" height="124.339"/>
				<rect x="227.95" y="258.06" style="fill:#E0E0E0;" width="57.773" height="2.28"/>
				<polygon style="fill:#EBEBEB;" points="256.837,229.173 227.95,258.06 285.723,258.06 				"/>
				<polygon style="fill:#E0E0E0;" points="321.363,276.674 296.173,276.674 296.173,382.398 350.249,382.398 350.249,305.561 				
					"/>
				<polygon style="fill:#EBEBEB;" points="296.173,276.674 296.173,305.561 296.173,382.398 325.06,382.398 325.06,305.561 				"/>
				<rect x="253.386" y="283.245" style="fill:#E0E0E0;" width="6.9" height="14.689"/>
				<rect x="268.625" y="283.245" style="fill:#E0E0E0;" width="6.9" height="14.689"/>
				<rect x="253.386" y="311.178" style="fill:#E0E0E0;" width="6.9" height="14.689"/>
				<rect x="268.625" y="311.178" style="fill:#E0E0E0;" width="6.9" height="14.689"/>
				<rect x="253.386" y="339.112" style="fill:#E0E0E0;" width="6.9" height="14.689"/>
				<rect x="238.148" y="283.245" style="fill:#E0E0E0;" width="6.9" height="14.689"/>
				<rect x="238.148" y="311.178" style="fill:#E0E0E0;" width="6.9" height="14.689"/>
				<rect x="238.148" y="339.112" style="fill:#E0E0E0;" width="6.9" height="14.689"/>
				<rect x="268.625" y="339.112" style="fill:#E0E0E0;" width="6.9" height="14.689"/>
				<rect x="304.403" y="311.178" style="fill:#E0E0E0;" width="6.9" height="14.689"/>
				<rect x="304.403" y="339.112" style="fill:#E0E0E0;" width="6.9" height="14.689"/>
			</g>
			<g>
				<polygon style="fill:#E0E0E0;" points="187.02,278.032 150.757,278.032 150.757,382.398 213.305,382.398 213.305,304.317 				
					"/>
				<rect x="124.472" y="304.317" style="fill:#EBEBEB;" width="52.57" height="78.081"/>
				<rect x="124.472" y="304.317" style="fill:#E0E0E0;" width="52.57" height="2.074"/>
				<polygon style="fill:#EBEBEB;" points="150.757,278.032 124.472,304.317 177.042,304.317 				"/>
				<rect x="133.264" y="320.786" style="fill:#E0E0E0;" width="9.549" height="9.549"/>
				<rect x="154.248" y="320.786" style="fill:#E0E0E0;" width="9.549" height="9.549"/>
				<rect x="133.264" y="348.156" style="fill:#E0E0E0;" width="9.549" height="9.549"/>
				<rect x="154.248" y="348.156" style="fill:#E0E0E0;" width="9.549" height="9.549"/>
				<rect x="144.981" y="266.481" style="fill:#EBEBEB;" width="11.551" height="23.102"/>
			</g>
			<g>
				<polygon style="fill:#E0E0E0;" points="412.398,299.454 374.434,299.454 374.434,382.398 439.916,382.398 439.916,320.344 				
					"/>
				<rect x="346.916" y="320.344" style="fill:#EBEBEB;" width="55.036" height="62.054"/>
				<rect x="346.916" y="320.344" style="fill:#E0E0E0;" width="55.036" height="1.648"/>
				<polygon style="fill:#EBEBEB;" points="374.434,299.454 346.916,320.344 401.952,320.344 				"/>
				<rect x="355.421" y="330.441" style="fill:#E0E0E0;" width="5.008" height="10.771"/>
				<rect x="366.427" y="330.441" style="fill:#E0E0E0;" width="5.008" height="10.771"/>
				<rect x="355.421" y="355.522" style="fill:#E0E0E0;" width="5.008" height="10.771"/>
				<rect x="366.427" y="355.522" style="fill:#E0E0E0;" width="5.008" height="10.771"/>
				<rect x="377.433" y="330.441" style="fill:#E0E0E0;" width="5.008" height="10.771"/>
				<rect x="388.439" y="330.441" style="fill:#E0E0E0;" width="5.008" height="10.771"/>
				<rect x="377.433" y="355.522" style="fill:#E0E0E0;" width="5.008" height="10.771"/>
				<rect x="388.439" y="355.522" style="fill:#E0E0E0;" width="5.008" height="10.771"/>
				<rect x="406.527" y="290.274" style="fill:#E0E0E0;" width="12.093" height="18.36"/>
			</g>
		</g>
		<g>
			
				<ellipse transform="matrix(0.1602 -0.9871 0.9871 0.1602 23.6917 245.9998)" style="fill:#FAFAFA;" cx="156.415" cy="109.077" rx="45.456" ry="45.456"/>
			<g>
				<path style="fill:#FAFAFA;" d="M340.657,150.135c6.808-10.431,18.011-17.857,28.33-17.857c6.472,0,11.406,2.923,14.188,7.682
					c3.751-2.713,7.957-4.339,11.957-4.339c7.04,0,11.431,5.024,11.549,12.112c3.513-1.58,7.202-2.549,10.791-2.704
					c7.075-0.32,12.183,2.567,14.313,7.262c1.445-0.786,3.02-1.279,4.552-1.352c4.076-0.183,6.25,2.731,4.872,6.503
					c-0.088,0.238-0.186,0.466-0.283,0.694h-8.064h-6.416h-22.287h-10.967h-8.528h-13.135h-2.384h-32.582h-9.609
					C327.263,154.439,335.597,150.321,340.657,150.135z"/>
				<path style="fill:#FAFAFA;" d="M330.154,92.325c3.158-4.839,8.356-8.285,13.144-8.285c3.002,0,5.291,1.356,6.582,3.564
					c1.74-1.259,3.691-2.013,5.547-2.013c3.266,0,5.303,2.331,5.358,5.619c1.63-0.733,3.341-1.182,5.007-1.254
					c3.282-0.148,5.652,1.191,6.64,3.369c0.67-0.364,1.401-0.593,2.112-0.627c1.891-0.085,2.9,1.267,2.26,3.017
					c-0.041,0.11-0.086,0.216-0.131,0.322h-3.741h-2.977h-10.34h-5.088h-3.956h-6.094h-1.106h-15.116h-4.458
					C323.94,94.321,327.807,92.411,330.154,92.325z"/>
				<path style="fill:#F0F0F0;" d="M171.787,110.07c7.637-11.702,20.205-20.032,31.781-20.032c7.26,0,12.795,3.279,15.916,8.617
					c4.208-3.043,8.926-4.867,13.413-4.867c7.897,0,12.823,5.636,12.956,13.587c3.941-1.773,8.079-2.859,12.106-3.033
					c7.936-0.359,13.667,2.879,16.056,8.146c1.621-0.881,3.388-1.435,5.106-1.516c4.572-0.205,7.011,3.064,5.465,7.296
					c-0.099,0.266-0.208,0.523-0.317,0.779h-9.046h-7.197h-25.001h-12.303h-9.566h-14.735h-2.674h-36.551h-10.779
					C156.761,114.898,166.111,110.279,171.787,110.07z"/>
				<path style="fill:#F5F5F5;" d="M76.042,165.676c0.303-0.033,0.593-0.05,0.869-0.05c3.168-3.236,6.819-5.301,9.951-5.301
					c2.26,0,3.892,1.079,4.789,2.904c5.832-6.281,12.738-10.362,18.602-10.362c4.73,0,7.912,2.655,9.247,6.986
					c3.124-2.464,6.428-3.941,9.356-3.941c5.145,0,7.629,4.563,6.683,11.001c0,0-0.007,0.008,0.007,0
					c2.784-1.435,5.625-2.323,8.275-2.464c5.205-0.29,8.515,2.331,9.39,6.604c1.174-0.722,2.394-1.17,3.524-1.228
					c2.845-0.158,4.045,2.199,2.855,5.351h-6.249h-4.236h-16.291h-7.629h-6.794h-9.649H90.51h-7.106h-2.529H70.761h-9.075
					C64.44,170.397,70.693,166.215,76.042,165.676z"/>
			</g>
		</g>
	</g>
</g>
<g id="Background_Simple" style="display:none;">
	<g style="display:inline;">
		<path style="fill:#407BFF;" d="M423.099,143.237c-13.192-56.141-55.246-91.145-105.932-75.732
			c-61.052,21.53-100.2,86.614-170.615,74.559C44.027,109.882,32.842,230.46,54.2,259.781
			c42.958,66.524,224.625,33.158,266.7,22.292C406.254,261.823,441.481,223.963,423.099,143.237z"/>
		<path style="opacity:0.9;fill:#FFFFFF;" d="M423.099,143.237c-13.192-56.141-55.246-91.145-105.932-75.732
			c-61.052,21.53-100.2,86.614-170.615,74.559C44.027,109.882,32.842,230.46,54.2,259.781
			c42.958,66.524,224.625,33.158,266.7,22.292C406.254,261.823,441.481,223.963,423.099,143.237z"/>
	</g>
</g>
<g id="Shadow_1_">
	<ellipse id="_x3C_Path_x3E__118_" style="fill:#F5F5F5;" cx="250" cy="416.238" rx="193.889" ry="11.323"/>
</g>
<g id="Trees">
	<g>
		<polygon style="fill:#407BFF;" points="81.286,416.238 112.031,416.238 107.51,325.219 85.807,325.219 		"/>
		<polygon style="opacity:0.1;" points="81.286,416.238 112.031,416.238 107.51,325.219 85.807,325.219 		"/>
		<polygon style="fill:#407BFF;" points="94.518,372.939 100.228,367.229 65.044,333.725 61.014,337.755 		"/>
		<polygon style="opacity:0.1;" points="94.518,372.939 100.228,367.229 65.044,333.725 61.014,337.755 		"/>
		<g>
			<g>
				<ellipse style="fill:#407BFF;" cx="128.817" cy="307.142" rx="29.272" ry="26.583"/>
				<ellipse style="fill:#407BFF;" cx="103.242" cy="278.858" rx="22.621" ry="20.543"/>
				<ellipse style="fill:#407BFF;" cx="92.867" cy="303.102" rx="22.621" ry="20.543"/>
				<ellipse style="fill:#407BFF;" cx="74.038" cy="283.962" rx="22.621" ry="20.543"/>
				<ellipse style="fill:#407BFF;" cx="64.49" cy="312.246" rx="22.621" ry="20.543"/>
				<ellipse style="fill:#407BFF;" cx="73.211" cy="327.685" rx="22.621" ry="20.543"/>
				<ellipse style="fill:#407BFF;" cx="96.658" cy="316.074" rx="31.145" ry="28.284"/>
				<ellipse style="fill:#407BFF;" cx="112.902" cy="326.282" rx="31.145" ry="28.284"/>
				<ellipse style="fill:#407BFF;" cx="46.773" cy="294.626" rx="15.49" ry="14.067"/>
				<ellipse style="fill:#407BFF;" cx="55.822" cy="285.334" rx="15.49" ry="14.067"/>
				<ellipse style="fill:#407BFF;" cx="131.487" cy="275.274" rx="15.49" ry="14.067"/>
			</g>
			<g style="opacity:0.3;">
				<ellipse style="fill:#FFFFFF;" cx="128.817" cy="307.142" rx="29.272" ry="26.583"/>
				<ellipse style="fill:#FFFFFF;" cx="103.242" cy="278.858" rx="22.621" ry="20.543"/>
				<ellipse style="fill:#FFFFFF;" cx="92.867" cy="303.102" rx="22.621" ry="20.543"/>
				<ellipse style="fill:#FFFFFF;" cx="74.038" cy="283.962" rx="22.621" ry="20.543"/>
				<ellipse style="fill:#FFFFFF;" cx="64.49" cy="312.246" rx="22.621" ry="20.543"/>
				<ellipse style="fill:#FFFFFF;" cx="73.211" cy="327.685" rx="22.621" ry="20.543"/>
				<ellipse style="fill:#FFFFFF;" cx="96.658" cy="316.074" rx="31.145" ry="28.284"/>
				<ellipse style="fill:#FFFFFF;" cx="112.902" cy="326.282" rx="31.145" ry="28.284"/>
				<ellipse style="fill:#FFFFFF;" cx="46.773" cy="294.626" rx="15.49" ry="14.067"/>
				<ellipse style="fill:#FFFFFF;" cx="55.822" cy="285.334" rx="15.49" ry="14.067"/>
				<ellipse style="fill:#FFFFFF;" cx="131.487" cy="275.274" rx="15.49" ry="14.067"/>
			</g>
		</g>
	</g>
	<g>
		<g>
			<g>
				<path style="fill:#407BFF;" d="M280.79,405.851c0,3.705-0.887,7.226-2.485,10.387h-50.17c-1.598-3.161-2.485-6.682-2.485-10.387
					c0-2.222,0.316-4.372,0.913-6.427c0.096-0.325,0.202-0.65,0.307-0.975c1.194-3.495,3.205-6.655,5.821-9.316
					c0.404-0.404,0.825-0.808,1.264-1.185c2.608-2.327,5.734-4.188,9.202-5.408c2.265-0.817,4.671-1.361,7.182-1.589
					c0.948-0.096,1.905-0.141,2.88-0.141c5.04,0,9.764,1.229,13.829,3.38C275.267,388.519,280.79,396.597,280.79,405.851z"/>
				<ellipse style="fill:#407BFF;" cx="229.135" cy="379.21" rx="21.304" ry="19.347"/>
				<path style="fill:#407BFF;" d="M240.664,402.041c0,5.61-2.634,10.668-6.831,14.197h-28.94
					c-3.196-2.678-5.479-6.252-6.392-10.273c-0.211-0.931-0.351-1.879-0.404-2.862v-0.009c-0.026-0.342-0.035-0.702-0.035-1.053
					c0-0.703,0.044-1.396,0.132-2.081c0.299-2.59,1.168-5.031,2.494-7.217c1.896-3.152,4.741-5.768,8.183-7.533
					c3.099-1.598,6.673-2.511,10.492-2.511c1.203,0,2.388,0.088,3.538,0.272c4.241,0.641,8.051,2.424,11.054,4.978
					c0.975,0.834,1.87,1.756,2.661,2.748c1.291,1.615,2.309,3.415,3.003,5.356c0.149,0.404,0.281,0.817,0.395,1.238
					C240.436,398.809,240.664,400.399,240.664,402.041z"/>
				<ellipse style="fill:#407BFF;" cx="201.63" cy="384.016" rx="21.304" ry="19.347"/>
				<path style="fill:#407BFF;" d="M213.946,410.654c0,1.941-0.316,3.819-0.904,5.585H172.24c-0.588-1.765-0.904-3.644-0.904-5.585
					c0-1.343,0.149-2.651,0.43-3.907c0.86-3.776,2.924-7.147,5.804-9.772c1.589-1.44,3.415-2.652,5.435-3.574
					c2.213-1.027,4.662-1.712,7.244-1.967c0.782-0.079,1.581-0.123,2.388-0.123c1.572,0,3.091,0.158,4.566,0.457h0.008
					c1.203,0.228,2.362,0.553,3.477,0.974c1.062,0.386,2.072,0.852,3.038,1.396c3.143,1.739,5.751,4.197,7.542,7.13
					c1.431,2.335,2.353,4.969,2.599,7.77c0.035,0.29,0.053,0.588,0.061,0.887C213.937,410.162,213.946,410.408,213.946,410.654z"/>
				<path style="fill:#407BFF;" d="M219.732,416.238h-37.764c2.643-4.601,7.27-8.104,12.854-9.597
					c1.185-0.325,2.414-0.544,3.679-0.676c0.773-0.079,1.554-0.114,2.353-0.114c4.724,0,9.079,1.396,12.617,3.749
					c0.158,0.105,0.307,0.21,0.457,0.325C216.334,411.62,218.318,413.771,219.732,416.238z"/>
				<path style="fill:#407BFF;" d="M252.263,414.263c0,0.667-0.026,1.326-0.079,1.976h-58.502c-0.053-0.65-0.079-1.309-0.079-1.976
					c0-2.652,0.421-5.207,1.221-7.621c0.43-1.326,0.983-2.616,1.633-3.846c0.518-0.983,1.098-1.932,1.738-2.836
					c1.519-2.177,3.389-4.145,5.532-5.821c2.257-1.783,4.811-3.249,7.586-4.338c3.451-1.361,7.252-2.133,11.247-2.168
					c0.123-0.009,0.255-0.009,0.377-0.009c3.424,0,6.708,0.535,9.755,1.51c1.361,0.43,2.669,0.957,3.925,1.563
					c2.09,1.001,4.03,2.221,5.786,3.644c1.484,1.194,2.827,2.52,4.021,3.951C250.085,402.751,252.263,408.274,252.263,414.263z"/>
				<path style="fill:#407BFF;" d="M266.337,416.238h-56.211c0.773-2.371,1.905-4.601,3.345-6.638
					c0.123-0.184,0.255-0.378,0.395-0.562c3.108-4.206,7.516-7.569,12.696-9.614c0.825-0.325,1.677-0.615,2.546-0.87
					c2.423-0.729,4.987-1.168,7.648-1.282c0.492-0.026,0.983-0.035,1.475-0.035c0.597,0,1.194,0.018,1.782,0.053
					c2.213,0.114,4.355,0.457,6.41,1.001C255.968,400.802,263.501,407.599,266.337,416.238z"/>
				<ellipse style="fill:#407BFF;" cx="175.952" cy="394.06" rx="14.588" ry="13.248"/>
				<ellipse style="fill:#407BFF;" cx="184.475" cy="385.308" rx="14.588" ry="13.248"/>
				<ellipse style="fill:#407BFF;" cx="255.735" cy="375.834" rx="14.588" ry="13.248"/>
			</g>
			<g style="opacity:0.3;">
				<path style="fill:#FFFFFF;" d="M280.79,405.851c0,3.705-0.887,7.226-2.485,10.387h-50.17c-1.598-3.161-2.485-6.682-2.485-10.387
					c0-2.222,0.316-4.372,0.913-6.427c0.096-0.325,0.202-0.65,0.307-0.975c1.194-3.495,3.205-6.655,5.821-9.316
					c0.404-0.404,0.825-0.808,1.264-1.185c2.608-2.327,5.734-4.188,9.202-5.408c2.265-0.817,4.671-1.361,7.182-1.589
					c0.948-0.096,1.905-0.141,2.88-0.141c5.04,0,9.764,1.229,13.829,3.38C275.267,388.519,280.79,396.597,280.79,405.851z"/>
				<ellipse style="fill:#FFFFFF;" cx="229.135" cy="379.21" rx="21.304" ry="19.347"/>
				<path style="fill:#FFFFFF;" d="M240.664,402.041c0,5.61-2.634,10.668-6.831,14.197h-28.94
					c-3.196-2.678-5.479-6.252-6.392-10.273c-0.211-0.931-0.351-1.879-0.404-2.862v-0.009c-0.026-0.342-0.035-0.702-0.035-1.053
					c0-0.703,0.044-1.396,0.132-2.081c0.299-2.59,1.168-5.031,2.494-7.217c1.896-3.152,4.741-5.768,8.183-7.533
					c3.099-1.598,6.673-2.511,10.492-2.511c1.203,0,2.388,0.088,3.538,0.272c4.241,0.641,8.051,2.424,11.054,4.978
					c0.975,0.834,1.87,1.756,2.661,2.748c1.291,1.615,2.309,3.415,3.003,5.356c0.149,0.404,0.281,0.817,0.395,1.238
					C240.436,398.809,240.664,400.399,240.664,402.041z"/>
				<ellipse style="fill:#FFFFFF;" cx="201.63" cy="384.016" rx="21.304" ry="19.347"/>
				<path style="fill:#FFFFFF;" d="M213.946,410.654c0,1.941-0.316,3.819-0.904,5.585H172.24c-0.588-1.765-0.904-3.644-0.904-5.585
					c0-1.343,0.149-2.651,0.43-3.907c0.86-3.776,2.924-7.147,5.804-9.772c1.589-1.44,3.415-2.652,5.435-3.574
					c2.213-1.027,4.662-1.712,7.244-1.967c0.782-0.079,1.581-0.123,2.388-0.123c1.572,0,3.091,0.158,4.566,0.457h0.008
					c1.203,0.228,2.362,0.553,3.477,0.974c1.062,0.386,2.072,0.852,3.038,1.396c3.143,1.739,5.751,4.197,7.542,7.13
					c1.431,2.335,2.353,4.969,2.599,7.77c0.035,0.29,0.053,0.588,0.061,0.887C213.937,410.162,213.946,410.408,213.946,410.654z"/>
				<path style="fill:#FFFFFF;" d="M219.732,416.238h-37.764c2.643-4.601,7.27-8.104,12.854-9.597
					c1.185-0.325,2.414-0.544,3.679-0.676c0.773-0.079,1.554-0.114,2.353-0.114c4.724,0,9.079,1.396,12.617,3.749
					c0.158,0.105,0.307,0.21,0.457,0.325C216.334,411.62,218.318,413.771,219.732,416.238z"/>
				<path style="fill:#FFFFFF;" d="M252.263,414.263c0,0.667-0.026,1.326-0.079,1.976h-58.502c-0.053-0.65-0.079-1.309-0.079-1.976
					c0-2.652,0.421-5.207,1.221-7.621c0.43-1.326,0.983-2.616,1.633-3.846c0.518-0.983,1.098-1.932,1.738-2.836
					c1.519-2.177,3.389-4.145,5.532-5.821c2.257-1.783,4.811-3.249,7.586-4.338c3.451-1.361,7.252-2.133,11.247-2.168
					c0.123-0.009,0.255-0.009,0.377-0.009c3.424,0,6.708,0.535,9.755,1.51c1.361,0.43,2.669,0.957,3.925,1.563
					c2.09,1.001,4.03,2.221,5.786,3.644c1.484,1.194,2.827,2.52,4.021,3.951C250.085,402.751,252.263,408.274,252.263,414.263z"/>
				<path style="fill:#FFFFFF;" d="M266.337,416.238h-56.211c0.773-2.371,1.905-4.601,3.345-6.638
					c0.123-0.184,0.255-0.378,0.395-0.562c3.108-4.206,7.516-7.569,12.696-9.614c0.825-0.325,1.677-0.615,2.546-0.87
					c2.423-0.729,4.987-1.168,7.648-1.282c0.492-0.026,0.983-0.035,1.475-0.035c0.597,0,1.194,0.018,1.782,0.053
					c2.213,0.114,4.355,0.457,6.41,1.001C255.968,400.802,263.501,407.599,266.337,416.238z"/>
				<ellipse style="fill:#FFFFFF;" cx="175.952" cy="394.06" rx="14.588" ry="13.248"/>
				<ellipse style="fill:#FFFFFF;" cx="184.475" cy="385.308" rx="14.588" ry="13.248"/>
				<ellipse style="fill:#FFFFFF;" cx="255.735" cy="375.834" rx="14.588" ry="13.248"/>
			</g>
		</g>
	</g>
	<g>
		<polygon style="fill:#407BFF;" points="345.885,416.238 387.698,416.238 381.549,292.453 352.034,292.453 		"/>
		<polygon style="opacity:0.1;" points="345.885,416.238 387.698,416.238 381.549,292.453 352.034,292.453 		"/>
		<polygon style="fill:#407BFF;" points="363.881,357.353 371.646,349.587 323.797,304.022 318.315,309.503 		"/>
		<polygon style="opacity:0.1;" points="363.881,357.353 371.646,349.587 323.797,304.022 318.315,309.503 		"/>
		<g>
			<g>
				<ellipse style="fill:#407BFF;" cx="410.526" cy="267.87" rx="39.809" ry="36.152"/>
				<ellipse style="fill:#407BFF;" cx="375.745" cy="229.404" rx="30.764" ry="27.938"/>
				<ellipse style="fill:#407BFF;" cx="361.636" cy="262.375" rx="30.764" ry="27.938"/>
				<ellipse style="fill:#407BFF;" cx="336.027" cy="236.345" rx="30.764" ry="27.938"/>
				<ellipse style="fill:#407BFF;" cx="323.043" cy="274.811" rx="30.764" ry="27.938"/>
				<ellipse style="fill:#407BFF;" cx="334.903" cy="295.808" rx="30.764" ry="27.938"/>
				<ellipse style="fill:#407BFF;" cx="366.791" cy="280.017" rx="42.357" ry="38.466"/>
				<ellipse style="fill:#407BFF;" cx="388.882" cy="293.899" rx="42.357" ry="38.466"/>
				<ellipse style="fill:#407BFF;" cx="298.948" cy="250.849" rx="21.066" ry="19.131"/>
				<ellipse style="fill:#407BFF;" cx="311.254" cy="238.211" rx="21.066" ry="19.131"/>
				<ellipse style="fill:#407BFF;" cx="414.157" cy="224.53" rx="21.066" ry="19.131"/>
			</g>
			<g style="opacity:0.3;">
				<ellipse style="fill:#FFFFFF;" cx="410.526" cy="267.87" rx="39.809" ry="36.152"/>
				<ellipse style="fill:#FFFFFF;" cx="375.745" cy="229.404" rx="30.764" ry="27.938"/>
				<ellipse style="fill:#FFFFFF;" cx="361.636" cy="262.375" rx="30.764" ry="27.938"/>
				<ellipse style="fill:#FFFFFF;" cx="336.027" cy="236.345" rx="30.764" ry="27.938"/>
				<ellipse style="fill:#FFFFFF;" cx="323.043" cy="274.811" rx="30.764" ry="27.938"/>
				<ellipse style="fill:#FFFFFF;" cx="334.903" cy="295.808" rx="30.764" ry="27.938"/>
				<ellipse style="fill:#FFFFFF;" cx="366.791" cy="280.017" rx="42.357" ry="38.466"/>
				<ellipse style="fill:#FFFFFF;" cx="388.882" cy="293.899" rx="42.357" ry="38.466"/>
				<ellipse style="fill:#FFFFFF;" cx="298.948" cy="250.849" rx="21.066" ry="19.131"/>
				<ellipse style="fill:#FFFFFF;" cx="311.254" cy="238.211" rx="21.066" ry="19.131"/>
				<ellipse style="fill:#FFFFFF;" cx="414.157" cy="224.53" rx="21.066" ry="19.131"/>
			</g>
		</g>
	</g>
</g>
<g id="House_1">
	<g>
		<rect x="121.812" y="134.27" style="fill:#263238;" width="17.247" height="54.665"/>
		<g>
			<polygon style="fill:#263238;" points="169.046,125.362 89.667,204.742 248.424,204.742 			"/>
		</g>
		<g>
			<polygon style="fill:#407BFF;" points="169.046,132.096 96.4,204.742 241.691,204.742 			"/>
		</g>
		
			<rect x="166.932" y="162.681" transform="matrix(6.123234e-17 -1 1 6.123234e-17 -25.3633 363.4544)" style="opacity:0.1;" width="4.227" height="63.456"/>
		<polygon style="opacity:0.1;" points="169.635,154.488 169.635,150.26 158.088,150.26 158.088,154.488 163.862,154.488 
			163.862,158.714 175.409,158.714 175.409,154.488 		"/>
		<rect x="105.031" y="200.271" style="fill:#407BFF;" width="128.03" height="215.967"/>
		<rect x="102.54" y="413.517" style="fill:#407BFF;" width="133.012" height="2.721"/>
		<polygon style="fill:#407BFF;" points="103.308,247.46 103.308,308.556 101.678,308.556 101.678,311.79 105.031,311.79 
			105.031,308.556 105.031,247.46 		"/>
		<polygon style="fill:#407BFF;" points="234.783,247.46 234.783,308.556 236.413,308.556 236.413,311.79 233.06,311.79 
			233.06,308.556 233.06,247.46 		"/>
		<polygon style="fill:#407BFF;" points="101.584,207.722 236.507,207.722 234.923,229.143 103.168,229.143 		"/>
		<rect x="105.031" y="204.742" style="opacity:0.1;" width="128.03" height="2.98"/>
		<rect x="105.031" y="228.957" style="opacity:0.1;" width="128.03" height="2.98"/>
		<path style="opacity:0.4;fill:#FFFFFF;" d="M169.046,165.052c-15.046,0-27.243,12.197-27.243,27.244h54.486
			C196.289,177.249,184.091,165.052,169.046,165.052z"/>
		<path style="opacity:0.3;fill:#407BFF;" d="M172.911,171.654c-11.399,0-20.641,9.241-20.641,20.641h41.281
			C193.552,180.896,184.31,171.654,172.911,171.654z"/>
		<g>
			<rect x="107.732" y="211.913" style="opacity:0.1;" width="1.543" height="13.039"/>
			<rect x="115.3" y="211.913" style="opacity:0.1;" width="1.543" height="13.039"/>
			<rect x="122.868" y="211.913" style="opacity:0.1;" width="1.543" height="13.039"/>
			<rect x="130.435" y="211.913" style="opacity:0.1;" width="1.543" height="13.039"/>
			<rect x="138.003" y="211.913" style="opacity:0.1;" width="1.543" height="13.039"/>
			<rect x="145.571" y="211.913" style="opacity:0.1;" width="1.543" height="13.039"/>
			<rect x="153.139" y="211.913" style="opacity:0.1;" width="1.543" height="13.039"/>
			<rect x="160.707" y="211.913" style="opacity:0.1;" width="1.543" height="13.039"/>
			<rect x="168.275" y="211.913" style="opacity:0.1;" width="1.543" height="13.039"/>
			<rect x="175.842" y="211.913" style="opacity:0.1;" width="1.543" height="13.039"/>
			<rect x="183.41" y="211.913" style="opacity:0.1;" width="1.543" height="13.039"/>
			<rect x="190.978" y="211.913" style="opacity:0.1;" width="1.543" height="13.039"/>
			<rect x="198.546" y="211.913" style="opacity:0.1;" width="1.543" height="13.039"/>
			<rect x="206.113" y="211.913" style="opacity:0.1;" width="1.543" height="13.039"/>
			<rect x="213.681" y="211.913" style="opacity:0.1;" width="1.543" height="13.039"/>
			<rect x="221.249" y="211.913" style="opacity:0.1;" width="1.543" height="13.039"/>
			<rect x="228.817" y="211.913" style="opacity:0.1;" width="1.543" height="13.039"/>
		</g>
		<g>
			<rect x="109.265" y="316.007" style="opacity:0.1;" width="1.504" height="3.506"/>
			<rect x="116.643" y="316.007" style="opacity:0.1;" width="1.504" height="3.506"/>
			<rect x="124.022" y="316.007" style="opacity:0.1;" width="1.504" height="3.506"/>
			<rect x="131.401" y="316.007" style="opacity:0.1;" width="1.504" height="3.506"/>
			<rect x="138.779" y="316.007" style="opacity:0.1;" width="1.504" height="3.506"/>
			<rect x="146.158" y="316.007" style="opacity:0.1;" width="1.504" height="3.506"/>
			<rect x="153.536" y="316.007" style="opacity:0.1;" width="1.504" height="3.506"/>
			<rect x="160.915" y="316.007" style="opacity:0.1;" width="1.504" height="3.506"/>
			<rect x="168.294" y="316.007" style="opacity:0.1;" width="1.504" height="3.506"/>
			<rect x="175.672" y="316.007" style="opacity:0.1;" width="1.504" height="3.506"/>
			<rect x="183.051" y="316.007" style="opacity:0.1;" width="1.504" height="3.506"/>
			<rect x="190.43" y="316.007" style="opacity:0.1;" width="1.504" height="3.506"/>
			<rect x="197.808" y="316.007" style="opacity:0.1;" width="1.504" height="3.506"/>
			<rect x="205.187" y="316.007" style="opacity:0.1;" width="1.504" height="3.506"/>
			<rect x="212.566" y="316.007" style="opacity:0.1;" width="1.504" height="3.506"/>
			<rect x="219.944" y="316.007" style="opacity:0.1;" width="1.504" height="3.506"/>
			<rect x="227.323" y="316.007" style="opacity:0.1;" width="1.504" height="3.506"/>
		</g>
		<g>
			
				<rect x="101.835" y="263.231" transform="matrix(-1.836970e-16 1 -1 -1.836970e-16 410.3907 145.625)" style="opacity:0.4;fill:#FFFFFF;" width="61.097" height="29.554"/>
			
				<rect x="130.661" y="295.291" transform="matrix(6.123234e-17 -1 1 6.123234e-17 -177.8957 442.4508)" style="opacity:0.1;" width="3.234" height="29.764"/>
			
				<rect x="130.52" y="263.231" transform="matrix(-1.836970e-16 1 -1 -1.836970e-16 410.3907 145.6249)" style="opacity:0.4;fill:#FFFFFF;" width="3.725" height="29.554"/>
			<rect x="119.842" y="249.695" style="opacity:0.4;fill:#FFFFFF;" width="25.083" height="56.626"/>
			<rect x="123.639" y="259.133" style="opacity:0.3;fill:#407BFF;" width="19.399" height="47.188"/>
		</g>
		<g>
			<g>
				
					<rect x="161.844" y="263.231" transform="matrix(-1.836970e-16 1 -1 -1.836970e-16 470.4001 85.6156)" style="opacity:0.4;fill:#FFFFFF;" width="61.097" height="29.554"/>
				
					<rect x="190.775" y="281.799" transform="matrix(6.123234e-17 -1 1 6.123234e-17 -117.7811 502.5654)" style="opacity:0.1;" width="3.234" height="56.748"/>
				
					<rect x="190.529" y="263.231" transform="matrix(-1.836970e-16 1 -1 -1.836970e-16 470.4 85.6156)" style="opacity:0.4;fill:#FFFFFF;" width="3.725" height="29.554"/>
				<rect x="179.851" y="249.695" style="opacity:0.4;fill:#FFFFFF;" width="25.083" height="56.626"/>
				<rect x="183.648" y="259.133" style="opacity:0.3;fill:#407BFF;" width="19.399" height="47.188"/>
			</g>
			<g>
				
					<rect x="185.399" y="273.189" transform="matrix(-1.836970e-16 1 -1 -1.836970e-16 493.9555 62.0602)" style="opacity:0.4;fill:#FFFFFF;" width="61.097" height="9.637"/>
				
					<rect x="214.085" y="273.189" transform="matrix(-1.836970e-16 1 -1 -1.836970e-16 493.9554 62.0602)" style="opacity:0.4;fill:#FFFFFF;" width="3.725" height="9.637"/>
				<rect x="213.365" y="249.695" style="opacity:0.4;fill:#FFFFFF;" width="5.167" height="56.626"/>
			</g>
			<g>
				
					<rect x="138.288" y="273.189" transform="matrix(-1.836970e-16 1 -1 -1.836970e-16 446.8445 109.1712)" style="opacity:0.4;fill:#FFFFFF;" width="61.097" height="9.637"/>
				
					<rect x="166.974" y="273.189" transform="matrix(-1.836970e-16 1 -1 -1.836970e-16 446.8445 109.1711)" style="opacity:0.4;fill:#FFFFFF;" width="3.725" height="9.637"/>
				<rect x="166.254" y="249.695" style="opacity:0.4;fill:#FFFFFF;" width="5.167" height="56.626"/>
			</g>
		</g>
		<g>
			<g>
				
					<rect x="161.844" y="345.5" transform="matrix(-1.836970e-16 1 -1 -1.836970e-16 552.6694 167.8849)" style="opacity:0.4;fill:#FFFFFF;" width="61.097" height="29.554"/>
				
					<rect x="190.775" y="364.069" transform="matrix(6.123234e-17 -1 1 6.123234e-17 -200.0504 584.8347)" style="opacity:0.1;" width="3.234" height="56.748"/>
				
					<rect x="190.53" y="345.5" transform="matrix(-1.836970e-16 1 -1 -1.836970e-16 552.6694 167.8849)" style="opacity:0.4;fill:#FFFFFF;" width="3.725" height="29.554"/>
				<rect x="179.851" y="331.964" style="opacity:0.4;fill:#FFFFFF;" width="25.083" height="56.626"/>
				<rect x="183.648" y="341.402" style="opacity:0.3;fill:#407BFF;" width="19.399" height="47.188"/>
			</g>
			<g>
				
					<rect x="185.399" y="355.459" transform="matrix(-1.836970e-16 1 -1 -1.836970e-16 576.2248 144.3295)" style="opacity:0.4;fill:#FFFFFF;" width="61.097" height="9.637"/>
				
					<rect x="214.085" y="355.459" transform="matrix(-1.836970e-16 1 -1 -1.836970e-16 576.2248 144.3295)" style="opacity:0.4;fill:#FFFFFF;" width="3.725" height="9.637"/>
				<rect x="213.365" y="331.964" style="opacity:0.4;fill:#FFFFFF;" width="5.167" height="56.626"/>
			</g>
			<g>
				
					<rect x="138.288" y="355.459" transform="matrix(-1.836970e-16 1 -1 -1.836970e-16 529.1138 191.4404)" style="opacity:0.4;fill:#FFFFFF;" width="61.097" height="9.637"/>
				
					<rect x="166.974" y="355.459" transform="matrix(-1.836970e-16 1 -1 -1.836970e-16 529.1138 191.4404)" style="opacity:0.4;fill:#FFFFFF;" width="3.725" height="9.637"/>
				<rect x="166.254" y="331.964" style="opacity:0.4;fill:#FFFFFF;" width="5.167" height="56.626"/>
			</g>
		</g>
		<polygon style="opacity:0.1;" points="157.707,410.796 157.707,405.355 113.464,405.355 113.464,410.796 110.641,410.796 
			110.641,416.238 160.531,416.238 160.531,410.796 		"/>
		<g>
			<path style="opacity:0.4;fill:#FFFFFF;" d="M155.065,405.354h-38.957v-56.147c0-10.713,8.765-19.479,19.479-19.479h0
				c10.713,0,19.479,8.765,19.479,19.479V405.354z"/>
			<rect x="119.954" y="351.026" style="opacity:0.5;fill:#407BFF;" width="31.264" height="54.329"/>
			<path style="opacity:0.5;fill:#407BFF;" d="M135.586,333.515c-6.576,0-11.906,5.331-11.906,11.906h23.812
				C147.492,338.846,142.162,333.515,135.586,333.515z"/>
			<path style="fill:#407BFF;" d="M149.464,378.19c0,1.089-0.883,1.971-1.971,1.971c-1.089,0-1.971-0.883-1.971-1.971
				c0-1.089,0.883-1.971,1.971-1.971C148.581,376.219,149.464,377.101,149.464,378.19z"/>
		</g>
		<g>
			
				<rect x="134.867" y="236.595" transform="matrix(6.123234e-17 -1 1 6.123234e-17 -105.388 379.3483)" style="opacity:0.1;" width="4.227" height="11.547"/>
			
				<rect x="189.068" y="230.727" transform="matrix(6.123234e-17 -1 1 6.123234e-17 -45.319 427.6823)" style="opacity:0.1;" width="4.227" height="11.547"/>
			<polygon style="opacity:0.1;" points="214.016,403.582 214.016,399.356 202.469,399.356 202.469,403.582 208.242,403.582 
				208.242,407.809 219.789,407.809 219.789,403.582 			"/>
		</g>
	</g>
</g>
<g id="House_2">
	<g>
		<rect x="258.2" y="157.801" style="fill:#407BFF;" width="126.088" height="258.437"/>
		<path style="fill:#263238;" d="M276.098,126.556L276.098,126.556c-0.499,0-0.904,0.405-0.904,0.904v26.177h1.808V127.46
			C277.002,126.96,276.597,126.556,276.098,126.556z"/>
		<path style="fill:#263238;" d="M365.802,145.207L365.802,145.207c-0.499,0-0.904,0.405-0.904,0.904v7.526h1.808v-7.526
			C366.707,145.612,366.302,145.207,365.802,145.207z"/>
		<rect x="289.337" y="133.389" style="fill:#263238;" width="1.808" height="20.248"/>
		<path style="fill:#263238;" d="M304.313,128.373c2.648,7.281,0.774,14.645-4.185,16.449c-4.96,1.804-11.127-2.636-13.775-9.917
			c-2.648-7.281-0.774-14.645,4.185-16.449C295.498,116.652,301.665,121.092,304.313,128.373z"/>
		<g>
			<polygon style="fill:#407BFF;" points="384.288,291.083 429.889,321.667 429.889,416.238 384.288,416.238 			"/>
			<polygon style="opacity:0.1;" points="384.288,291.083 429.889,321.667 429.889,416.238 384.288,416.238 			"/>
			<polygon style="opacity:0.1;" points="419.059,389.22 419.059,384.635 406.533,384.635 406.533,389.22 412.796,389.22 
				412.796,393.805 425.322,393.805 425.322,389.22 			"/>
			<polygon style="fill:#263238;" points="434.167,326.333 384.288,292.667 384.288,287.554 434.167,321.22 			"/>
			<g>
				
					<rect x="386.372" y="335.068" transform="matrix(-1.836970e-16 1 -1 -1.836970e-16 757.0683 -55.9976)" style="opacity:0.4;fill:#FFFFFF;" width="40.322" height="30.934"/>
				
					<rect x="405.304" y="335.068" transform="matrix(-1.836970e-16 1 -1 -1.836970e-16 757.0682 -55.9977)" style="opacity:0.4;fill:#FFFFFF;" width="2.459" height="30.934"/>
				<rect x="392.403" y="331.849" style="opacity:0.4;fill:#FFFFFF;" width="28.26" height="37.372"/>
				<rect x="394.674" y="338.078" style="opacity:0.3;fill:#407BFF;" width="24.86" height="31.143"/>
			</g>
		</g>
		<g>
			<polygon style="fill:#407BFF;" points="384.288,157.801 258.2,157.801 256.482,155.061 386.006,155.061 			"/>
			<polygon style="opacity:0.2;" points="384.288,157.801 258.2,157.801 256.482,155.061 386.006,155.061 			"/>
		</g>
		<polygon style="fill:#263238;" points="386.746,155.061 255.742,155.061 253.957,152.214 388.531,152.214 		"/>
		<g>
			<g>
				<rect x="262.222" y="164.582" style="opacity:0.2;" width="10.739" height="25.864"/>
				<rect x="263.81" y="168.406" style="opacity:0.4;fill:#407BFF;" width="7.564" height="18.216"/>
			</g>
			<g>
				<rect x="369.527" y="164.582" style="opacity:0.2;" width="10.739" height="25.864"/>
				<rect x="371.115" y="168.406" style="opacity:0.4;fill:#407BFF;" width="7.564" height="18.216"/>
			</g>
			<g>
				<rect x="347.88" y="164.582" style="opacity:0.2;" width="17.018" height="25.864"/>
				<rect x="350.396" y="168.406" style="opacity:0.4;fill:#407BFF;" width="11.986" height="18.216"/>
			</g>
			<g>
				<rect x="277.59" y="164.582" style="opacity:0.2;" width="17.018" height="25.864"/>
				<rect x="280.106" y="168.406" style="opacity:0.4;fill:#407BFF;" width="11.986" height="18.216"/>
			</g>
			<g>
				<rect x="299.727" y="164.582" style="opacity:0.2;" width="43.035" height="25.864"/>
				<rect x="306.089" y="168.406" style="opacity:0.4;fill:#407BFF;" width="30.31" height="18.216"/>
			</g>
		</g>
		<g>
			<g>
				
					<rect x="263.161" y="233.023" transform="matrix(-1.836970e-16 1 -1 -1.836970e-16 548.7789 -50.6741)" style="opacity:0.4;fill:#FFFFFF;" width="73.131" height="32.06"/>
				
					<rect x="298.759" y="255.806" transform="matrix(6.123234e-17 -1 1 6.123234e-17 13.1407 586.3124)" style="opacity:0.1;" width="1.936" height="61.56"/>
				
					<rect x="297.497" y="233.023" transform="matrix(-1.836970e-16 1 -1 -1.836970e-16 548.7789 -50.6741)" style="opacity:0.4;fill:#FFFFFF;" width="4.459" height="32.06"/>
				<rect x="286.122" y="215.162" style="opacity:0.4;fill:#FFFFFF;" width="27.21" height="67.78"/>
				<rect x="290.241" y="226.459" style="opacity:0.3;fill:#407BFF;" width="21.044" height="56.483"/>
			</g>
			<g>
				
					<rect x="288.714" y="243.825" transform="matrix(-1.836970e-16 1 -1 -1.836970e-16 574.3317 -76.2269)" style="opacity:0.4;fill:#FFFFFF;" width="73.131" height="10.454"/>
				
					<rect x="323.05" y="243.825" transform="matrix(-1.836970e-16 1 -1 -1.836970e-16 574.3317 -76.2269)" style="opacity:0.4;fill:#FFFFFF;" width="4.459" height="10.454"/>
				<rect x="322.478" y="215.162" style="opacity:0.4;fill:#FFFFFF;" width="5.605" height="67.78"/>
			</g>
			<g>
				
					<rect x="237.608" y="243.825" transform="matrix(-1.836970e-16 1 -1 -1.836970e-16 523.2263 -25.1215)" style="opacity:0.4;fill:#FFFFFF;" width="73.131" height="10.454"/>
				
					<rect x="271.944" y="243.825" transform="matrix(-1.836970e-16 1 -1 -1.836970e-16 523.2263 -25.1215)" style="opacity:0.4;fill:#FFFFFF;" width="4.459" height="10.454"/>
				<rect x="271.372" y="215.162" style="opacity:0.4;fill:#FFFFFF;" width="5.605" height="67.78"/>
			</g>
		</g>
		<g>
			<g>
				
					<rect x="263.161" y="324.081" transform="matrix(-1.836970e-16 1 -1 -1.836970e-16 639.837 40.3839)" style="opacity:0.4;fill:#FFFFFF;" width="73.131" height="32.06"/>
				
					<rect x="298.759" y="346.864" transform="matrix(6.123234e-17 -1 1 6.123234e-17 -77.9173 677.3704)" style="opacity:0.1;" width="1.936" height="61.56"/>
				
					<rect x="297.497" y="324.081" transform="matrix(-1.836970e-16 1 -1 -1.836970e-16 639.837 40.3839)" style="opacity:0.4;fill:#FFFFFF;" width="4.459" height="32.06"/>
				<rect x="286.122" y="306.22" style="opacity:0.4;fill:#FFFFFF;" width="27.21" height="67.78"/>
				<rect x="290.241" y="317.517" style="opacity:0.3;fill:#407BFF;" width="21.044" height="56.483"/>
			</g>
			<g>
				
					<rect x="288.714" y="334.883" transform="matrix(-1.836970e-16 1 -1 -1.836970e-16 665.3897 14.8312)" style="opacity:0.4;fill:#FFFFFF;" width="73.131" height="10.454"/>
				
					<rect x="323.05" y="334.883" transform="matrix(-1.836970e-16 1 -1 -1.836970e-16 665.3898 14.8313)" style="opacity:0.4;fill:#FFFFFF;" width="4.459" height="10.454"/>
				<rect x="322.478" y="306.22" style="opacity:0.4;fill:#FFFFFF;" width="5.605" height="67.78"/>
			</g>
			<g>
				
					<rect x="237.608" y="334.883" transform="matrix(-1.836970e-16 1 -1 -1.836970e-16 614.2843 65.9366)" style="opacity:0.4;fill:#FFFFFF;" width="73.131" height="10.454"/>
				
					<rect x="271.944" y="334.883" transform="matrix(-1.836970e-16 1 -1 -1.836970e-16 614.2844 65.9367)" style="opacity:0.4;fill:#FFFFFF;" width="4.459" height="10.454"/>
				<rect x="271.372" y="306.22" style="opacity:0.4;fill:#FFFFFF;" width="5.605" height="67.78"/>
			</g>
		</g>
		<g>
			
				<rect x="322.226" y="233.023" transform="matrix(-1.836970e-16 1 -1 -1.836970e-16 607.8439 -109.7392)" style="opacity:0.4;fill:#FFFFFF;" width="73.131" height="32.06"/>
			
				<rect x="357.824" y="270.556" transform="matrix(6.123234e-17 -1 1 6.123234e-17 72.2057 645.3774)" style="opacity:0.1;" width="1.936" height="32.06"/>
			
				<rect x="356.562" y="233.023" transform="matrix(-1.836970e-16 1 -1 -1.836970e-16 607.8439 -109.7392)" style="opacity:0.4;fill:#FFFFFF;" width="4.459" height="32.06"/>
			<rect x="345.187" y="215.162" style="opacity:0.4;fill:#FFFFFF;" width="27.21" height="67.78"/>
			<rect x="349.306" y="226.459" style="opacity:0.3;fill:#407BFF;" width="21.044" height="56.483"/>
		</g>
		<polygon style="opacity:0.1;" points="287.72,201.467 287.72,196.881 275.194,196.881 275.194,201.467 281.457,201.467 
			281.457,206.052 293.983,206.052 293.983,201.467 		"/>
		<polygon style="opacity:0.1;" points="348.319,298.96 348.319,294.375 335.793,294.375 335.793,298.96 342.055,298.96 
			342.055,303.545 354.582,303.545 354.582,298.96 		"/>
		
			<rect x="325.79" y="190.618" transform="matrix(6.123234e-17 -1 1 6.123234e-17 131.2009 524.9633)" style="opacity:0.1;" width="4.585" height="12.526"/>
		
			<rect x="277.108" y="384.36" transform="matrix(6.123234e-17 -1 1 6.123234e-17 -111.2224 670.0244)" style="opacity:0.1;" width="4.585" height="12.526"/>
		
			<rect x="307.201" y="397.495" transform="matrix(6.123234e-17 -1 1 6.123234e-17 -94.2642 713.2508)" style="opacity:0.1;" width="4.585" height="12.526"/>
		
			<rect x="393.729" y="312.16" transform="matrix(6.123234e-17 -1 1 6.123234e-17 77.5984 714.4437)" style="opacity:0.1;" width="4.585" height="12.526"/>
		<polygon style="opacity:0.1;" points="378.783,407.468 378.783,398.696 377.244,398.696 377.244,389.926 338.908,389.926 
			338.908,398.696 337.37,398.696 337.37,407.468 335.551,407.468 335.551,416.239 380.601,416.239 380.601,407.468 		"/>
		<g>
			
				<rect x="319.968" y="332.647" transform="matrix(-1.836970e-16 1 -1 -1.836970e-16 709.8928 -6.2632)" style="opacity:0.1;fill:#263238;" width="76.219" height="38.336"/>
			<rect x="341.335" y="316.13" style="opacity:0.3;fill:#263238;" width="33.486" height="73.794"/>
			<g style="opacity:0.6;">
				<rect x="346.936" y="323.999" style="fill:#407BFF;" width="10.224" height="10.224"/>
				<rect x="358.996" y="323.999" style="fill:#407BFF;" width="10.224" height="10.224"/>
				<rect x="346.936" y="336.114" style="fill:#407BFF;" width="10.224" height="10.224"/>
				<rect x="358.996" y="336.114" style="fill:#407BFF;" width="10.224" height="10.224"/>
			</g>
			<circle style="fill:#407BFF;" cx="369.961" cy="356.239" r="2.138"/>
		</g>
	</g>
</g>
</svg>
